<svg xmlns="http://www.w3.org/2000/svg" width="268" height="68" viewBox="0 0 268 68"><defs><style>.a{fill:#fff;}.b{fill:rgba(0,0,0,0.86);}</style></defs><g transform="translate(-826 -78)"><rect class="a" width="268" height="68" transform="translate(826 78)"/><path class="b" d="M6.035-26.633V0H-.117V-26.633ZM12.57-13.508A13.234,13.234,0,0,1,16.7-23.324a13.835,13.835,0,0,1,10.063-4.047A13.912,13.912,0,0,1,36.879-23.3a13.559,13.559,0,0,1,4.1,10.008A13.488,13.488,0,0,1,36.852-3.254a14.112,14.112,0,0,1-10.2,4.02,13.534,13.534,0,0,1-10.035-4.1A13.794,13.794,0,0,1,12.57-13.508Zm6.289.109a8.983,8.983,0,0,0,2.133,6.316,7.509,7.509,0,0,0,5.77,2.352,7.5,7.5,0,0,0,5.77-2.324,8.754,8.754,0,0,0,2.16-6.207,8.754,8.754,0,0,0-2.16-6.207,7.509,7.509,0,0,0-5.77-2.352,7.443,7.443,0,0,0-5.715,2.352A8.557,8.557,0,0,0,18.859-13.4ZM53.641-26.633V0H47.488V-26.633Zm6.535,13.125A13.234,13.234,0,0,1,64.3-23.324a13.835,13.835,0,0,1,10.063-4.047A13.912,13.912,0,0,1,84.484-23.3a13.559,13.559,0,0,1,4.1,10.008A13.488,13.488,0,0,1,84.457-3.254a14.112,14.112,0,0,1-10.2,4.02,13.534,13.534,0,0,1-10.035-4.1A13.794,13.794,0,0,1,60.176-13.508Zm6.289.109A8.983,8.983,0,0,0,68.6-7.082a7.509,7.509,0,0,0,5.77,2.352,7.5,7.5,0,0,0,5.77-2.324,8.754,8.754,0,0,0,2.16-6.207,8.754,8.754,0,0,0-2.16-6.207,7.509,7.509,0,0,0-5.77-2.352,7.443,7.443,0,0,0-5.715,2.352A8.557,8.557,0,0,0,66.465-13.4Zm30.746-2.816h8.2v5.359h-8.2Zm24.23-10.418V0h-6.152V-26.633Zm6.535,13.125a13.234,13.234,0,0,1,4.129-9.816,13.835,13.835,0,0,1,10.063-4.047A13.912,13.912,0,0,1,152.285-23.3a13.559,13.559,0,0,1,4.1,10.008,13.488,13.488,0,0,1-4.129,10.035,14.112,14.112,0,0,1-10.2,4.02,13.534,13.534,0,0,1-10.035-4.1A13.794,13.794,0,0,1,127.977-13.508Zm6.289.109A8.983,8.983,0,0,0,136.4-7.082a7.509,7.509,0,0,0,5.77,2.352,7.5,7.5,0,0,0,5.77-2.324,8.754,8.754,0,0,0,2.16-6.207,8.754,8.754,0,0,0-2.16-6.207,7.509,7.509,0,0,0-5.77-2.352,7.443,7.443,0,0,0-5.715,2.352A8.557,8.557,0,0,0,134.266-13.4Zm34.781-13.234V0h-6.152V-26.633Zm6.535,13.125a13.234,13.234,0,0,1,4.129-9.816,13.835,13.835,0,0,1,10.063-4.047A13.912,13.912,0,0,1,199.891-23.3a13.559,13.559,0,0,1,4.1,10.008,13.488,13.488,0,0,1-4.129,10.035,14.112,14.112,0,0,1-10.2,4.02,13.534,13.534,0,0,1-10.035-4.1A13.794,13.794,0,0,1,175.582-13.508Zm6.289.109A8.983,8.983,0,0,0,184-7.082a7.509,7.509,0,0,0,5.77,2.352,7.5,7.5,0,0,0,5.77-2.324,8.754,8.754,0,0,0,2.16-6.207,8.754,8.754,0,0,0-2.16-6.207,7.509,7.509,0,0,0-5.77-2.352,7.443,7.443,0,0,0-5.715,2.352A8.557,8.557,0,0,0,181.871-13.4Z" transform="translate(858.063 127.371)"/></g></svg>